<svg xmlns="http://www.w3.org/2000/svg" xmlns:xlink="http://www.w3.org/1999/xlink" width="500" zoomAndPan="magnify" viewBox="0 0 375 374.999991" height="500" preserveAspectRatio="xMidYMid meet" version="1.0"><path fill="#fccc33" d="M 275.695312 327.460938 C 275.695312 335.191406 269.371094 341.515625 261.636719 341.515625 C 261.636719 341.515625 41.957031 341.515625 41.957031 341.515625 C 34.226562 341.515625 27.898438 335.191406 27.898438 327.460938 C 27.898438 319.726562 34.226562 313.402344 41.957031 313.402344 C 41.957031 313.402344 261.636719 313.402344 261.636719 313.402344 C 269.371094 313.402344 275.695312 319.726562 275.695312 327.460938 Z M 275.695312 327.460938 " fill-opacity="1" fill-rule="nonzero"/><path fill="#323403" d="M 261.636719 341.882812 C 261.636719 341.882812 41.957031 341.882812 41.957031 341.882812 C 34.003906 341.882812 27.53125 335.414062 27.53125 327.460938 C 27.53125 319.503906 34.003906 313.035156 41.957031 313.035156 C 41.957031 313.035156 261.636719 313.035156 261.636719 313.035156 C 269.589844 313.035156 276.0625 319.503906 276.0625 327.460938 C 276.0625 335.414062 269.589844 341.882812 261.636719 341.882812 Z M 41.957031 313.765625 C 34.40625 313.765625 28.265625 319.910156 28.265625 327.460938 C 28.265625 335.007812 34.40625 341.152344 41.957031 341.152344 C 41.957031 341.152344 261.636719 341.152344 261.636719 341.152344 C 269.1875 341.152344 275.328125 335.007812 275.328125 327.460938 C 275.328125 319.910156 269.1875 313.765625 261.636719 313.765625 C 261.636719 313.765625 41.957031 313.765625 41.957031 313.765625 Z M 41.957031 313.765625 " fill-opacity="1" fill-rule="nonzero"/><path fill="#004aad" d="M 207.332031 313.398438 C 207.332031 313.398438 207.332031 341.515625 207.332031 341.515625 C 207.332031 341.515625 45.019531 341.515625 45.019531 341.515625 C 35.601562 341.515625 27.898438 335.191406 27.898438 327.460938 C 27.898438 327.460938 27.898438 327.457031 27.898438 327.457031 C 27.898438 319.726562 35.601562 313.398438 45.019531 313.398438 C 45.019531 313.398438 207.332031 313.398438 207.332031 313.398438 Z M 207.332031 313.398438 " fill-opacity="1" fill-rule="nonzero"/><path fill="#323403" d="M 207.699219 341.882812 C 207.699219 341.882812 45.019531 341.882812 45.019531 341.882812 C 35.375 341.882812 27.53125 335.414062 27.53125 327.460938 C 27.53125 319.503906 35.375 313.035156 45.019531 313.035156 C 45.019531 313.035156 207.699219 313.035156 207.699219 313.035156 C 207.699219 313.035156 207.699219 341.882812 207.699219 341.882812 Z M 45.019531 313.765625 C 35.78125 313.765625 28.265625 319.910156 28.265625 327.457031 C 28.265625 335.007812 35.78125 341.152344 45.019531 341.152344 C 45.019531 341.152344 206.964844 341.152344 206.964844 341.152344 C 206.964844 341.152344 206.964844 313.765625 206.964844 313.765625 C 206.964844 313.765625 45.019531 313.765625 45.019531 313.765625 Z M 45.019531 313.765625 " fill-opacity="1" fill-rule="nonzero"/><path fill="#004aad" d="M 150.453125 266.777344 C 150.453125 258.671875 157.085938 252.039062 165.195312 252.039062 C 165.195312 252.039062 274.699219 252.039062 274.699219 252.039062 C 282.804688 252.039062 289.4375 258.671875 289.4375 266.777344 C 289.4375 274.886719 282.804688 281.519531 274.699219 281.519531 C 274.699219 281.519531 165.195312 281.519531 165.195312 281.519531 C 157.085938 281.519531 150.453125 274.886719 150.453125 266.777344 Z M 150.453125 266.777344 " fill-opacity="1" fill-rule="nonzero"/><path fill="#323403" d="M 274.699219 281.886719 C 274.699219 281.886719 165.191406 281.886719 165.191406 281.886719 C 156.863281 281.886719 150.085938 275.109375 150.085938 266.78125 C 150.085938 258.449219 156.863281 251.671875 165.191406 251.671875 C 165.191406 251.671875 274.699219 251.671875 274.699219 251.671875 C 283.027344 251.671875 289.804688 258.449219 289.804688 266.78125 C 289.804688 275.109375 283.027344 281.886719 274.699219 281.886719 Z M 165.191406 252.40625 C 157.265625 252.40625 150.816406 258.855469 150.816406 266.78125 C 150.816406 274.707031 157.265625 281.15625 165.191406 281.15625 C 165.191406 281.15625 274.699219 281.15625 274.699219 281.15625 C 282.625 281.15625 289.070312 274.707031 289.070312 266.78125 C 289.070312 258.855469 282.625 252.40625 274.699219 252.40625 C 274.699219 252.40625 165.191406 252.40625 165.191406 252.40625 Z M 165.191406 252.40625 " fill-opacity="1" fill-rule="nonzero"/><path fill="#ffffff" d="M 261.671875 266.78125 C 261.671875 260.417969 266.828125 255.261719 273.191406 255.261719 C 279.550781 255.261719 284.710938 260.417969 284.710938 266.78125 C 284.710938 273.140625 279.550781 278.296875 273.191406 278.296875 C 266.828125 278.296875 261.671875 273.140625 261.671875 266.78125 Z M 261.671875 266.78125 " fill-opacity="1" fill-rule="nonzero"/><path fill="#f94257" d="M 320.097656 69.898438 C 320.097656 69.898438 300.101562 78.53125 300.101562 78.53125 C 300.101562 78.53125 319.121094 89.152344 319.121094 89.152344 C 319.121094 89.152344 321.15625 110.839844 321.15625 110.839844 C 321.15625 110.839844 337.128906 96.03125 337.128906 96.03125 C 337.128906 96.03125 358.382812 100.796875 358.382812 100.796875 C 358.382812 100.796875 349.238281 81.027344 349.238281 81.027344 C 349.238281 81.027344 360.339844 62.289062 360.339844 62.289062 C 360.339844 62.289062 338.710938 64.875 338.710938 64.875 C 338.710938 64.875 324.316406 48.527344 324.316406 48.527344 C 324.316406 48.527344 320.097656 69.898438 320.097656 69.898438 Z M 320.097656 69.898438 " fill-opacity="1" fill-rule="nonzero"/><path fill="#fccc33" d="M 86.351562 265.355469 C 86.351562 265.355469 72.792969 262.3125 72.792969 262.3125 C 72.792969 262.3125 62.601562 271.757812 62.601562 271.757812 C 62.601562 271.757812 61.300781 257.925781 61.300781 257.925781 C 61.300781 257.925781 49.167969 251.152344 49.167969 251.152344 C 49.167969 251.152344 61.925781 245.640625 61.925781 245.640625 C 61.925781 245.640625 64.621094 232.007812 64.621094 232.007812 C 64.621094 232.007812 73.800781 242.4375 73.800781 242.4375 C 73.800781 242.4375 87.597656 240.785156 87.597656 240.785156 C 87.597656 240.785156 80.515625 252.742188 80.515625 252.742188 C 80.515625 252.742188 86.351562 265.355469 86.351562 265.355469 Z M 86.351562 265.355469 " fill-opacity="1" fill-rule="nonzero"/><path fill="#323403" d="M 318.984375 216.382812 C 318.984375 222.246094 283.414062 227 239.535156 227 C 195.660156 227 160.089844 222.246094 160.089844 216.382812 C 160.089844 210.519531 195.660156 205.765625 239.535156 205.765625 C 283.414062 205.765625 318.984375 210.519531 318.984375 216.382812 Z M 318.984375 216.382812 " fill-opacity="1" fill-rule="nonzero"/><path fill="#fccc33" d="M 113.714844 125.945312 C 115.816406 76.476562 157.773438 37.9375 207.242188 40.039062 C 256.714844 42.140625 295.25 84.097656 293.152344 133.566406 C 291.050781 183.035156 249.09375 221.574219 199.625 219.472656 C 150.152344 217.371094 111.617188 175.414062 113.714844 125.945312 Z M 119.554688 126.195312 C 117.589844 172.445312 153.621094 211.671875 199.871094 213.632812 C 246.125 215.597656 285.347656 179.570312 287.3125 133.316406 C 289.277344 87.066406 253.246094 47.839844 206.996094 45.878906 C 160.746094 43.914062 121.519531 79.941406 119.554688 126.195312 Z M 119.554688 126.195312 " fill-opacity="1" fill-rule="nonzero"/><path fill="#323403" d="M 203.511719 219.921875 C 202.210938 219.921875 200.914062 219.894531 199.609375 219.839844 C 175.585938 218.816406 153.371094 208.476562 137.0625 190.71875 C 120.75 172.964844 112.332031 149.953125 113.351562 125.929688 C 115.460938 76.257812 157.597656 37.5625 207.257812 39.671875 C 231.28125 40.691406 253.496094 51.03125 269.808594 68.789062 C 286.117188 86.546875 294.535156 109.558594 293.515625 133.582031 C 292.496094 157.601562 282.15625 179.816406 264.402344 196.128906 C 247.605469 211.550781 226.113281 219.921875 203.511719 219.921875 Z M 113.714844 125.945312 C 113.714844 125.945312 114.082031 125.960938 114.082031 125.960938 C 113.070312 149.789062 121.421875 172.613281 137.601562 190.226562 C 153.777344 207.835938 175.8125 218.09375 199.640625 219.105469 C 223.472656 220.125 246.289062 211.765625 263.902344 195.589844 C 281.515625 179.410156 291.773438 157.378906 292.785156 133.550781 C 293.796875 109.722656 285.445312 86.898438 269.265625 69.285156 C 253.089844 51.671875 231.058594 41.414062 207.226562 40.40625 C 157.957031 38.28125 116.175781 76.691406 114.082031 125.960938 C 114.082031 125.960938 113.714844 125.945312 113.714844 125.945312 Z M 203.507812 214.078125 C 202.292969 214.078125 201.078125 214.050781 199.859375 214 C 177.390625 213.046875 156.617188 203.375 141.363281 186.769531 C 126.109375 170.164062 118.238281 148.644531 119.191406 126.179688 C 120.144531 103.710938 129.816406 82.9375 146.421875 67.6875 C 163.027344 52.433594 184.546875 44.566406 207.011719 45.511719 C 229.476562 46.464844 250.25 56.136719 265.503906 72.742188 C 280.757812 89.347656 288.632812 110.867188 287.679688 133.332031 C 286.726562 155.800781 277.054688 176.570312 260.449219 191.824219 C 244.746094 206.25 224.644531 214.078125 203.507812 214.078125 Z M 119.554688 126.195312 C 119.554688 126.195312 119.921875 126.207031 119.921875 126.207031 C 118.976562 148.480469 126.78125 169.8125 141.902344 186.273438 C 157.023438 202.734375 177.617188 212.320312 199.886719 213.265625 C 222.167969 214.222656 243.492188 206.40625 259.953125 191.285156 C 276.414062 176.164062 286.003906 155.574219 286.949219 133.300781 C 287.894531 111.03125 280.085938 89.699219 264.964844 73.238281 C 249.84375 56.773438 229.25 47.1875 206.980469 46.242188 C 184.707031 45.292969 163.378906 53.101562 146.914062 68.222656 C 130.453125 83.34375 120.867188 103.9375 119.921875 126.207031 C 119.921875 126.207031 119.554688 126.195312 119.554688 126.195312 Z M 119.554688 126.195312 " fill-opacity="1" fill-rule="nonzero"/><path fill="#323403" d="M 212.171875 76.054688 C 218.078125 115.253906 223.984375 154.453125 229.890625 193.652344 C 232.535156 190.8125 247.824219 173.839844 246.207031 148.164062 C 244.539062 121.585938 226.0625 106.429688 223.117188 104.097656 C 229.425781 100.054688 231.933594 92.042969 229.105469 85.238281 C 226.371094 78.660156 219.300781 74.796875 212.171875 76.054688 Z M 212.171875 76.054688 " fill-opacity="1" fill-rule="nonzero"/><path fill="#323403" d="M 106.40625 163.269531 C 106.40625 163.269531 85.8125 165.257812 85.8125 165.257812 C 85.09375 163.351562 80.59375 152.632812 69.628906 150.289062 C 63.761719 149.039062 58.714844 150.785156 56.226562 151.9375 C 56.226562 151.9375 55.914062 152.082031 55.914062 152.082031 C 55.914062 152.082031 77.058594 206.167969 77.058594 206.167969 C 77.058594 206.167969 112.730469 184.566406 112.730469 184.566406 C 112.730469 184.566406 106.40625 163.269531 106.40625 163.269531 Z M 77.425781 205.09375 C 77.425781 205.09375 56.847656 152.460938 56.847656 152.460938 C 59.347656 151.351562 64.054688 149.847656 69.476562 151.007812 C 80.863281 153.4375 85.046875 165.265625 85.222656 165.769531 C 85.222656 165.769531 85.3125 166.042969 85.3125 166.042969 C 85.3125 166.042969 105.878906 164.058594 105.878906 164.058594 C 105.878906 164.058594 111.867188 184.230469 111.867188 184.230469 C 111.867188 184.230469 77.425781 205.09375 77.425781 205.09375 Z M 77.425781 205.09375 " fill-opacity="1" fill-rule="nonzero"/><path fill="#323403" d="M 162.316406 276.101562 C 162.316406 276.101562 145.644531 261.417969 145.644531 261.417969 C 145.644531 261.417969 129.253906 274.046875 129.253906 274.046875 C 127.632812 272.8125 118.125 266.125 107.589844 269.964844 C 101.957031 272.019531 98.609375 276.183594 97.113281 278.484375 C 97.113281 278.484375 96.925781 278.773438 96.925781 278.773438 C 96.925781 278.773438 143.578125 313.355469 143.578125 313.355469 C 143.578125 313.355469 162.316406 276.101562 162.316406 276.101562 Z M 107.84375 270.652344 C 118.785156 266.660156 128.609375 274.460938 129.023438 274.792969 C 129.023438 274.792969 129.246094 274.976562 129.246094 274.976562 C 129.246094 274.976562 145.613281 262.367188 145.613281 262.367188 C 145.613281 262.367188 161.410156 276.273438 161.410156 276.273438 C 161.410156 276.273438 143.3125 312.25 143.3125 312.25 C 143.3125 312.25 97.917969 278.59375 97.917969 278.59375 C 99.445312 276.328125 102.636719 272.554688 107.84375 270.652344 Z M 107.84375 270.652344 " fill-opacity="1" fill-rule="nonzero"/><path fill="#f94257" d="M 197.582031 183.042969 C 190.011719 187.773438 180.980469 195.066406 173.414062 199.796875 C 169.058594 202.519531 165.21875 205.996094 162.082031 210.0625 C 150.484375 225.097656 138.886719 240.132812 127.285156 255.167969 C 127.285156 255.167969 169.023438 294.710938 169.023438 294.710938 C 177.8125 274.449219 186.597656 254.191406 195.382812 233.933594 C 208.0625 223.449219 218.769531 214.550781 228.335938 206.839844 C 231.066406 204.640625 235.433594 201.136719 237.121094 195.125 C 239.214844 187.660156 235.988281 180.746094 234.351562 177.769531 " fill-opacity="1" fill-rule="nonzero"/><path fill="#f94257" d="M 234.351562 177.769531 C 226.976562 170.128906 219.601562 162.492188 212.226562 154.851562 C 199.378906 152.207031 186.53125 149.5625 173.6875 146.917969 C 166.238281 145.382812 158.585938 145.121094 151.046875 146.136719 C 133.121094 148.554688 115.191406 150.972656 97.265625 153.386719 C 101.167969 177.0625 105.074219 200.738281 108.980469 224.414062 C 127.285156 210.992188 145.59375 197.566406 163.898438 184.140625 C 174.636719 184.628906 185.375 185.117188 196.117188 185.605469 " fill-opacity="1" fill-rule="nonzero"/><path fill="#fccc33" d="M 237.730469 184.199219 C 222.460938 181.675781 207.1875 179.152344 191.917969 176.628906 C 192.644531 160.714844 193.371094 144.796875 194.101562 128.882812 C 194.347656 123.46875 196.648438 118.351562 200.53125 114.574219 C 202.730469 112.433594 204.929688 110.296875 207.128906 108.15625 C 207.535156 105.488281 207.9375 102.824219 208.34375 100.15625 C 214.117188 100.121094 212.585938 100.132812 218.355469 100.097656 C 218.707031 102.210938 219.054688 104.328125 219.402344 106.445312 C 220.265625 106.796875 221.566406 107.398438 222.992188 108.371094 C 232.410156 114.800781 233.207031 127.945312 235.113281 152.339844 C 235.59375 158.46875 236.472656 169.574219 237.730469 184.199219 Z M 237.730469 184.199219 " fill-opacity="1" fill-rule="nonzero"/><path fill="#323403" d="M 238.132812 184.636719 C 238.132812 184.636719 237.671875 184.5625 237.671875 184.5625 C 237.671875 184.5625 191.535156 176.9375 191.535156 176.9375 C 191.535156 176.9375 193.734375 128.867188 193.734375 128.867188 C 193.988281 123.339844 196.308594 118.167969 200.277344 114.3125 C 200.277344 114.3125 206.785156 107.980469 206.785156 107.980469 C 206.785156 107.980469 208.03125 99.792969 208.03125 99.792969 C 208.03125 99.792969 218.667969 99.726562 218.667969 99.726562 C 218.667969 99.726562 219.730469 106.183594 219.730469 106.183594 C 220.957031 106.699219 222.121094 107.332031 223.199219 108.070312 C 232.527344 114.441406 233.527344 127.257812 235.339844 150.519531 C 235.339844 150.519531 235.476562 152.308594 235.476562 152.308594 C 236.273438 162.488281 237.152344 173.207031 238.09375 184.167969 C 238.09375 184.167969 238.132812 184.636719 238.132812 184.636719 Z M 192.296875 176.320312 C 192.296875 176.320312 237.324219 183.761719 237.324219 183.761719 C 236.398438 172.960938 235.53125 162.402344 234.746094 152.367188 C 234.746094 152.367188 234.609375 150.578125 234.609375 150.578125 C 232.8125 127.539062 231.824219 114.847656 222.789062 108.675781 C 221.695312 107.929688 220.511719 107.292969 219.265625 106.785156 C 219.265625 106.785156 219.074219 106.707031 219.074219 106.707031 C 219.074219 106.707031 218.046875 100.464844 218.046875 100.464844 C 218.046875 100.464844 208.660156 100.523438 208.660156 100.523438 C 208.660156 100.523438 207.472656 108.332031 207.472656 108.332031 C 207.472656 108.332031 200.789062 114.835938 200.789062 114.835938 C 196.953125 118.5625 194.710938 123.558594 194.464844 128.898438 C 194.464844 128.898438 192.296875 176.320312 192.296875 176.320312 Z M 192.296875 176.320312 " fill-opacity="1" fill-rule="nonzero"/><path fill="#323403" d="M 164.253906 171.011719 C 162.996094 169.6875 163.296875 167.542969 163.699219 165.824219 C 166.433594 154.148438 174.125 147.160156 174.199219 147.089844 C 177.171875 144.433594 182.136719 139.984375 189.402344 138.933594 C 193.378906 138.359375 195.875 139.078125 201.90625 140.8125 C 204.445312 141.546875 207.605469 142.453125 211.773438 143.523438 C 216.070312 144.628906 220.433594 145.644531 224.742188 146.542969 C 224.742188 146.542969 224.566406 147.375 224.566406 147.375 C 220.246094 146.472656 215.871094 145.457031 211.5625 144.351562 C 207.382812 143.277344 204.21875 142.367188 201.671875 141.632812 C 195.761719 139.933594 193.316406 139.230469 189.523438 139.777344 C 182.515625 140.789062 177.851562 144.964844 174.769531 147.726562 C 174.695312 147.792969 167.203125 154.605469 164.527344 166.019531 C 164.175781 167.527344 163.894531 169.398438 164.871094 170.425781 C 165.519531 171.105469 166.644531 171.355469 168.21875 171.160156 C 172.082031 170.683594 174.792969 165.871094 176.167969 162.726562 C 176.28125 162.421875 176.410156 162.109375 176.527344 161.800781 C 176.6875 161.296875 176.875 160.796875 177.109375 160.300781 C 177.113281 160.292969 177.117188 160.285156 177.121094 160.273438 C 178.558594 156.765625 180.285156 153.332031 182.253906 150.058594 C 182.253906 150.058594 182.980469 150.5 182.980469 150.5 C 181.035156 153.730469 179.332031 157.125 177.914062 160.589844 C 177.789062 160.957031 177.554688 161.613281 177.214844 162.433594 C 176.25 165.878906 177.070312 169.402344 179.457031 171.449219 C 181.378906 173.101562 183.773438 173.253906 185.007812 173.207031 C 183.855469 171.082031 183.214844 168.847656 183.101562 166.546875 C 182.972656 163.832031 183.601562 161.722656 184.308594 159.625 C 185.070312 157.371094 186.109375 155.210938 187.394531 153.199219 C 187.394531 153.199219 188.109375 153.660156 188.109375 153.660156 C 186.863281 155.609375 185.855469 157.707031 185.117188 159.898438 C 184.40625 161.992188 183.832031 163.9375 183.953125 166.507812 C 184.078125 169.085938 184.90625 171.582031 186.414062 173.925781 C 186.414062 173.925781 186.230469 174.042969 186.230469 174.042969 C 187.882812 176.226562 190.414062 177.472656 193.019531 177.3125 C 195.5625 177.160156 197.328125 175.707031 198.136719 174.886719 C 196.292969 173.824219 192.9375 171.398438 192.273438 167.558594 C 191.882812 165.300781 192.550781 163.324219 193.472656 160.585938 C 194.234375 158.332031 195.273438 156.167969 196.558594 154.160156 C 196.558594 154.160156 197.273438 154.617188 197.273438 154.617188 C 196.027344 156.570312 195.019531 158.667969 194.28125 160.859375 C 193.363281 163.574219 192.757812 165.367188 193.113281 167.414062 C 193.761719 171.15625 197.292969 173.464844 198.902344 174.339844 C 200.925781 174.15625 202.808594 173.589844 204.496094 172.648438 C 208.230469 170.5625 211.765625 166.386719 210.730469 164.128906 C 210 162.542969 207.105469 161.972656 205.003906 162.527344 C 202.582031 163.160156 200.738281 165.386719 200.425781 168.066406 C 200.425781 168.066406 199.578125 167.964844 199.578125 167.964844 C 199.933594 164.941406 202.027344 162.421875 204.789062 161.703125 C 207.273438 161.050781 210.5625 161.726562 211.503906 163.773438 C 212.25 165.398438 211.34375 167.457031 209.789062 169.328125 C 209.429688 169.761719 209.035156 170.1875 208.617188 170.59375 C 208.617188 170.59375 214.875 171.042969 214.875 171.042969 C 214.875 171.042969 214.8125 171.894531 214.8125 171.894531 C 214.8125 171.894531 207.746094 171.382812 207.746094 171.382812 C 206.824219 172.179688 205.839844 172.875 204.914062 173.394531 C 203.132812 174.386719 201.152344 174.988281 199.027344 175.191406 C 198.199219 176.117188 196.171875 177.976562 193.070312 178.164062 C 189.976562 178.351562 186.976562 176.78125 185.175781 174.054688 C 183.867188 174.121094 181.113281 173.996094 178.902344 172.097656 C 176.9375 170.410156 175.925781 167.839844 175.96875 165.082031 C 174.351562 168.132812 171.78125 171.578125 168.324219 172.003906 C 166.46875 172.234375 165.097656 171.902344 164.253906 171.011719 Z M 164.253906 171.011719 " fill-opacity="1" fill-rule="nonzero"/><path fill="#fccc33" d="M 256.652344 136.402344 C 272.691406 155.445312 274.265625 162.308594 273.082031 167.921875 C 272.839844 169.066406 271.613281 174.296875 267.140625 177.785156 C 262.269531 181.578125 256.167969 181.273438 246.109375 179.824219 C 237.621094 178.605469 226.550781 176.601562 213.617188 173.144531 C 215.007812 163.507812 216.394531 153.867188 217.785156 144.226562 C 221.414062 144.839844 225.039062 145.453125 228.667969 146.0625 C 226.75 143.597656 224.367188 140.199219 222.070312 135.910156 C 218.105469 128.511719 212.722656 118.46875 216.726562 111.617188 C 217.191406 110.824219 218.488281 108.597656 220.949219 107.621094 C 229.539062 104.214844 242.683594 119.820312 256.652344 136.402344 Z M 256.652344 136.402344 " fill-opacity="1" fill-rule="nonzero"/><path fill="#323403" d="M 256.722656 181.210938 C 253.613281 181.210938 250.09375 180.769531 246.054688 180.1875 C 235.257812 178.632812 224.3125 176.382812 213.523438 173.5 C 213.523438 173.5 213.210938 173.414062 213.210938 173.414062 C 213.210938 173.414062 217.472656 143.804688 217.472656 143.804688 C 217.472656 143.804688 227.8125 145.546875 227.8125 145.546875 C 225.550781 142.558594 223.511719 139.378906 221.746094 136.082031 C 217.761719 128.648438 212.304688 118.460938 216.410156 111.433594 C 216.910156 110.578125 218.238281 108.304688 220.816406 107.28125 C 229.652344 103.785156 242.902344 119.511719 256.929688 136.164062 C 256.929688 136.164062 256.652344 136.402344 256.652344 136.402344 C 256.652344 136.402344 256.933594 136.167969 256.933594 136.167969 C 272.464844 154.609375 274.746094 161.800781 273.441406 168 C 273.035156 169.917969 271.628906 174.75 267.363281 178.074219 C 264.367188 180.410156 260.914062 181.210938 256.722656 181.210938 Z M 214.027344 172.875 C 224.6875 175.710938 235.496094 177.925781 246.160156 179.464844 C 256.800781 180.996094 262.324219 181.074219 266.914062 177.496094 C 270.988281 174.320312 272.335938 169.6875 272.722656 167.847656 C 273.730469 163.074219 273.296875 156.730469 256.371094 136.640625 C 256.371094 136.640625 256.371094 136.636719 256.371094 136.636719 C 242.515625 120.191406 229.425781 104.648438 221.085938 107.964844 C 218.742188 108.890625 217.507812 111.007812 217.042969 111.800781 C 213.144531 118.476562 218.488281 128.453125 222.390625 135.738281 C 224.285156 139.269531 226.492188 142.667969 228.957031 145.839844 C 228.957031 145.839844 229.53125 146.582031 229.53125 146.582031 C 229.53125 146.582031 218.09375 144.652344 218.09375 144.652344 C 218.09375 144.652344 214.027344 172.875 214.027344 172.875 Z M 214.027344 172.875 " fill-opacity="1" fill-rule="nonzero"/><path fill="#323403" d="M 217.875 76.679688 C 211.414062 74.363281 204.273438 77.734375 201.953125 84.195312 C 199.636719 90.65625 203.007812 97.796875 209.46875 100.113281 C 215.929688 102.433594 223.070312 99.0625 225.386719 92.601562 C 227.707031 86.140625 224.335938 79 217.875 76.679688 Z M 209.714844 99.425781 C 203.636719 97.242188 200.460938 90.523438 202.644531 84.441406 C 204.824219 78.363281 211.546875 75.1875 217.628906 77.371094 C 223.707031 79.550781 226.878906 86.273438 224.699219 92.351562 C 222.519531 98.433594 215.796875 101.605469 209.714844 99.425781 Z M 209.714844 99.425781 " fill-opacity="1" fill-rule="nonzero"/><path fill="#323403" d="M 205.183594 92.933594 C 205.222656 92.941406 205.207031 92.984375 205.183594 92.964844 C 205.183594 92.964844 205.183594 92.933594 205.183594 92.933594 Z M 208.613281 85.78125 C 209.050781 85.121094 208.203125 84.59375 207.503906 85.203125 C 207.148438 86.242188 208.449219 86.492188 208.613281 85.78125 Z M 212.253906 83.707031 C 212.296875 83.621094 212.0625 83.648438 212.097656 83.589844 C 211.996094 83.648438 212.164062 83.359375 212.074219 83.472656 C 211.886719 83.628906 211.621094 83.238281 211.46875 83.417969 C 211.519531 83.117188 211.542969 83.238281 211.175781 83.359375 C 211.335938 83.035156 211.09375 83.464844 211.160156 83.210938 C 211.152344 83.226562 211.144531 83.238281 211.136719 83.246094 C 211.136719 83.203125 211.210938 82.902344 211.03125 83.203125 C 210.984375 83.195312 211.050781 83.078125 211.082031 83.019531 C 211.066406 83.027344 211.035156 83.0625 210.984375 83.128906 C 210.75 82.816406 210.699219 82.792969 210.464844 82.769531 C 210.269531 82.375 209.820312 82.808594 209.199219 82.171875 C 208.863281 82.273438 208.671875 81.695312 208.324219 81.847656 C 208.574219 81.554688 207.410156 81.503906 207.609375 81.167969 C 208.078125 80.464844 209.265625 81.847656 209.660156 81.628906 C 211.277344 82.347656 211.761719 83.347656 212.515625 83.371094 C 212.925781 83.980469 212.464844 83.605469 212.253906 83.707031 Z M 208.347656 81.085938 C 208.324219 81.066406 208.335938 81.09375 208.3125 81.144531 C 208.328125 81.125 208.332031 81.101562 208.347656 81.085938 Z M 208.664062 81.363281 C 208.664062 81.363281 208.648438 81.363281 208.648438 81.363281 C 208.640625 81.375 208.640625 81.378906 208.640625 81.386719 C 208.648438 81.378906 208.65625 81.378906 208.664062 81.363281 Z M 209.144531 90.292969 C 209.417969 90.941406 206.078125 95.191406 203.65625 91.617188 C 203.789062 91.566406 203.910156 91.515625 204.027344 91.460938 C 204.027344 91.460938 204.015625 91.492188 204.015625 91.492188 C 204.027344 91.515625 204.058594 91.484375 204.042969 91.460938 C 205.910156 90.730469 207.058594 90.65625 209.144531 90.292969 Z M 203.984375 91.542969 C 203.992188 91.527344 204.019531 91.519531 204.007812 91.5 C 204.007812 91.5 203.984375 91.542969 203.984375 91.542969 Z M 204.015625 91.527344 C 204.007812 91.535156 204 91.550781 203.992188 91.566406 C 204.015625 91.574219 204.035156 91.550781 204.015625 91.527344 Z M 204.058594 91.492188 C 204.019531 91.515625 204.035156 91.527344 204.058594 91.542969 C 204.058594 91.542969 204.058594 91.492188 204.058594 91.492188 Z M 205.484375 92.453125 C 205.441406 92.429688 205.433594 92.496094 205.449219 92.503906 C 205.449219 92.480469 205.472656 92.472656 205.484375 92.453125 Z M 208.027344 91.074219 C 207.339844 91.171875 204.570312 91.109375 204.359375 91.828125 C 204.921875 92.890625 208.09375 92.050781 208.027344 91.074219 Z M 198.339844 86.972656 C 198.660156 87.515625 201.414062 88.234375 202.980469 89.390625 C 206.085938 91.601562 195.476562 86.601562 196.589844 86.324219 C 197.921875 85.867188 201.957031 86.117188 203.273438 85.414062 C 203.765625 85.070312 204.007812 83.09375 204.292969 83.707031 C 203.957031 84.132812 204.027344 86.066406 203.210938 86.058594 C 203.378906 86.492188 195.675781 86.652344 198.339844 86.972656 Z M 202.226562 89.457031 C 202.234375 89.457031 202.25 89.464844 202.257812 89.464844 C 202.292969 89.390625 202.273438 89.417969 202.226562 89.457031 Z M 197.6875 86.761719 C 197.652344 86.734375 197.636719 86.785156 197.636719 86.804688 C 197.660156 86.820312 197.671875 86.785156 197.6875 86.761719 Z M 197.6875 86.761719 " fill-opacity="1" fill-rule="nonzero"/><path fill="#323403" d="M 144.046875 42.339844 C 144.046875 42.339844 144.0625 43.070312 144.0625 43.070312 C 144.0625 43.070312 289.191406 40.375 289.191406 40.375 C 289.191406 40.375 289.175781 39.640625 289.175781 39.640625 C 289.175781 39.640625 144.046875 42.339844 144.046875 42.339844 Z M 144.046875 42.339844 " fill-opacity="1" fill-rule="nonzero"/><path stroke-linecap="butt" transform="matrix(0.730768, -0.0463474, 0.0463474, 0.730768, 207.703512, 41.852964)" fill-opacity="1" fill="#ffffff" fill-rule="nonzero" stroke-linejoin="miter" d="M 7.707506 0.000483192 C 7.71025 4.255596 4.257266 7.708888 0.00215298 7.711632 C -4.257946 7.708714 -7.711238 4.255729 -7.708658 0.000954436 C -7.711064 -4.259482 -4.258417 -7.70745 0.0020194 -7.709856 C 4.256794 -7.707276 7.710424 -4.259616 7.707506 0.000483192 Z M 7.707506 0.000483192 " stroke="#323403" stroke-width="1" stroke-opacity="1" stroke-miterlimit="10"/><path stroke-linecap="butt" transform="matrix(0.730768, -0.0463474, 0.0463474, 0.730768, 289.223189, 40.371521)" fill-opacity="1" fill="#ffffff" fill-rule="nonzero" stroke-linejoin="miter" d="M 7.707224 0.00179864 C 7.709968 4.256911 4.256984 7.710203 -0.00311519 7.707285 C -4.258228 7.710029 -7.71152 4.257045 -7.70894 0.00226989 C -7.711346 -4.258167 -4.258361 -7.711458 -0.00358643 -7.708879 C 4.25685 -7.711285 7.710142 -4.2583 7.707224 0.00179864 Z M 7.707224 0.00179864 " stroke="#323403" stroke-width="1" stroke-opacity="1" stroke-miterlimit="10"/><path stroke-linecap="butt" transform="matrix(0.730768, -0.0463474, 0.0463474, 0.730768, 143.558141, 43.521696)" fill-opacity="1" fill="#ffffff" fill-rule="nonzero" stroke-linejoin="miter" d="M 7.708718 -0.000484265 C 7.711124 4.259952 4.258477 7.70792 0.00336455 7.710664 C -4.256734 7.707747 -7.710364 4.260086 -7.707446 -0.0000130214 C -7.709853 -4.26045 -4.257206 -7.708417 0.00323097 -7.710824 C 4.258006 -7.708244 7.711298 -4.255259 7.708718 -0.000484265 Z M 7.708718 -0.000484265 " stroke="#323403" stroke-width="1" stroke-opacity="1" stroke-miterlimit="10"/><path fill="#fccc33" d="M 86 80.128906 C 93.976562 72.191406 101.953125 64.25 109.929688 56.308594 C 120.601562 51.246094 131.277344 46.183594 141.953125 41.121094 C 143.1875 42.441406 144.421875 43.765625 145.65625 45.089844 C 140.695312 56.054688 135.730469 67.019531 130.769531 77.988281 C 122.84375 85.875 114.921875 93.765625 106.996094 101.652344 C 99.996094 94.480469 93 87.304688 86 80.128906 Z M 86 80.128906 " fill-opacity="1" fill-rule="nonzero"/><path fill="#323403" d="M 142.035156 40.675781 C 142.035156 40.675781 109.773438 55.980469 109.773438 55.980469 C 109.773438 55.980469 85.484375 80.125 85.484375 80.125 C 85.484375 80.125 106.988281 102.175781 106.988281 102.175781 C 106.988281 102.175781 131.027344 78.246094 131.027344 78.246094 C 131.027344 78.246094 146.089844 45.015625 146.089844 45.015625 C 146.089844 45.015625 142.035156 40.675781 142.035156 40.675781 Z M 130.464844 77.773438 C 130.464844 77.773438 107 101.132812 107 101.132812 C 107 101.132812 86.515625 80.132812 86.515625 80.132812 C 86.515625 80.132812 110.144531 56.613281 110.144531 56.613281 C 110.144531 56.613281 141.867188 41.566406 141.867188 41.566406 C 141.867188 41.566406 145.222656 45.160156 145.222656 45.160156 C 145.222656 45.160156 130.464844 77.773438 130.464844 77.773438 Z M 130.464844 77.773438 " fill-opacity="1" fill-rule="nonzero"/><path fill="#f94257" d="M 105.753906 105.144531 C 105.753906 105.144531 82.28125 81.585938 82.28125 81.585938 C 82.28125 81.585938 96.292969 67.628906 96.292969 67.628906 C 96.292969 67.628906 119.765625 91.1875 119.765625 91.1875 C 119.765625 91.1875 105.753906 105.144531 105.753906 105.144531 Z M 105.753906 105.144531 " fill-opacity="1" fill-rule="nonzero"/><path fill="#323403" d="M 105.753906 105.664062 C 105.753906 105.664062 81.765625 81.585938 81.765625 81.585938 C 81.765625 81.585938 96.292969 67.109375 96.292969 67.109375 C 96.292969 67.109375 120.285156 91.1875 120.285156 91.1875 C 120.285156 91.1875 105.753906 105.664062 105.753906 105.664062 Z M 82.800781 81.589844 C 82.800781 81.589844 105.753906 104.628906 105.753906 104.628906 C 105.753906 104.628906 119.25 91.1875 119.25 91.1875 C 119.25 91.1875 96.292969 68.144531 96.292969 68.144531 C 96.292969 68.144531 82.800781 81.589844 82.800781 81.589844 Z M 82.800781 81.589844 " fill-opacity="1" fill-rule="nonzero"/><path fill="#323403" d="M 144.066406 42.882812 C 144.066406 42.882812 143.550781 42.363281 143.550781 42.363281 C 143.550781 42.363281 127.140625 58.667969 127.140625 58.667969 C 126.835938 58.488281 126.476562 58.398438 126.101562 58.421875 C 125.09375 58.484375 124.324219 59.355469 124.390625 60.363281 C 124.453125 61.371094 125.324219 62.140625 126.332031 62.074219 C 127.339844 62.011719 128.105469 61.140625 128.042969 60.132812 C 128.019531 59.765625 127.886719 59.433594 127.683594 59.160156 C 127.683594 59.160156 144.066406 42.882812 144.066406 42.882812 Z M 126.285156 61.34375 C 125.679688 61.382812 125.160156 60.921875 125.121094 60.316406 C 125.082031 59.714844 125.542969 59.191406 126.148438 59.152344 C 126.75 59.113281 127.273438 59.574219 127.3125 60.179688 C 127.351562 60.78125 126.890625 61.304688 126.285156 61.34375 Z M 126.285156 61.34375 " fill-opacity="1" fill-rule="nonzero"/></svg>